# xmcd CD database file
#
# Track frame offsets:
#	151
#	26122
#	61477
#	99424
#	116191
#	143948
#	158895
#	172992
#
# Disc length: 2550 seconds
#
# Revision: 0
# Processed by: cddbd v1.5.1PL2 Copyright (c) Steve Scherf et al.
# Submitted via: CDex 1.51
#
DISCID=6c09f408
DTITLE=Shadia - Asmarani Alloun
DYEAR=1900
DGENRE=Classical Arabic
TTITLE0=Asmarani Alloum
TTITLE1=Ana Atrajah
TTITLE2=Oua Nabi ouhachtouna
TTITLE3=Irma La dous
TTITLE4=Faris Ahlami
TTITLE5=Habibi
TTITLE6=Ana Fin
TTITLE7=Ana Ya Rouhi Ana
EXTD=
EXTT0=
EXTT1=
EXTT2=
EXTT3=
EXTT4=
EXTT5=
EXTT6=
EXTT7=
PLAYORDER=
